<svg xmlns="http://www.w3.org/2000/svg" xmlns:xlink="http://www.w3.org/1999/xlink" width="500" zoomAndPan="magnify" viewBox="0 0 375 374.999991" height="500" preserveAspectRatio="xMidYMid meet" version="1.0"><defs><clipPath id="bce301c27f"><path d="M 121 110.652344 L 253.742188 110.652344 L 253.742188 264.402344 L 121 264.402344 Z M 121 110.652344 " clip-rule="nonzero"/></clipPath></defs><g clip-path="url(#bce301c27f)"><path fill="#01a2e9" d="M 138.382812 199.246094 C 139.898438 199.246094 141.285156 199.738281 142.398438 200.601562 C 143.355469 201.308594 144.09375 202.261719 144.558594 203.371094 L 200.214844 203.371094 C 200.738281 201.738281 201.726562 200.292969 203.023438 199.246094 C 204.503906 198.042969 206.386719 197.304688 208.484375 197.304688 C 210.863281 197.304688 212.992188 198.289062 214.597656 199.832031 C 216.140625 201.402344 217.128906 203.527344 217.128906 205.925781 C 217.128906 208.296875 216.140625 210.484375 214.597656 212.023438 C 213.023438 213.59375 210.894531 214.550781 208.484375 214.550781 C 206.417969 214.550781 204.535156 213.839844 203.023438 212.640625 C 201.726562 211.5625 200.738281 210.144531 200.214844 208.515625 L 144.589844 208.515625 C 144.125 209.621094 143.386719 210.578125 142.429688 211.285156 C 141.316406 212.117188 139.929688 212.609375 138.414062 212.609375 C 136.5625 212.609375 134.898438 211.871094 133.660156 210.667969 C 132.457031 209.46875 131.71875 207.804688 131.71875 205.925781 C 131.71875 204.109375 132.457031 202.449219 133.660156 201.183594 C 134.867188 199.984375 136.53125 199.246094 138.382812 199.246094 Z M 199.316406 247.222656 C 202.589844 240.230469 207.589844 237.089844 212.992188 235.765625 C 218.425781 234.472656 224.136719 235.089844 228.859375 235.613281 L 230.125 235.734375 L 231.175781 235.859375 C 231.824219 235.890625 232.410156 235.917969 232.933594 235.859375 C 233.457031 235.828125 233.953125 235.734375 234.355469 235.613281 C 234.878906 235.457031 235.28125 235.242188 235.648438 234.964844 C 236.019531 234.6875 236.328125 234.320312 236.574219 233.917969 C 236.824219 233.519531 237.039062 233.085938 237.195312 232.59375 C 237.347656 232.039062 237.472656 231.453125 237.53125 230.871094 C 237.59375 230.070312 237.59375 229.269531 237.503906 228.5 C 237.410156 227.636719 237.253906 226.835938 237.039062 226.160156 C 235.09375 219.9375 237.8125 218.613281 238.613281 218.367188 C 238.769531 218.304688 238.921875 218.273438 238.921875 218.273438 C 239.078125 218.273438 239.167969 218.246094 239.324219 218.246094 C 239.753906 218.246094 240.125 218.214844 240.402344 218.152344 C 240.652344 218.089844 240.804688 218.027344 240.929688 217.9375 C 240.679688 217.722656 240.464844 217.476562 240.21875 217.199219 C 239.910156 216.796875 239.601562 216.367188 239.355469 215.90625 C 239.199219 215.597656 239.078125 215.289062 239.015625 214.980469 C 238.921875 214.671875 238.859375 214.363281 238.859375 214.027344 C 238.828125 213.59375 238.890625 213.195312 239.015625 212.792969 C 239.136719 212.394531 239.292969 212.023438 239.570312 211.65625 C 239.785156 211.378906 240.035156 211.101562 240.34375 210.855469 C 240.621094 210.609375 240.960938 210.390625 241.328125 210.207031 C 241.484375 210.144531 241.609375 210.054688 241.730469 209.960938 C 241.855469 209.867188 241.976562 209.777344 242.070312 209.652344 C 242.195312 209.53125 242.285156 209.40625 242.347656 209.285156 C 242.410156 209.160156 242.472656 209.039062 242.503906 208.945312 C 242.503906 208.851562 242.503906 208.761719 242.503906 208.699219 C 242.503906 208.636719 242.472656 208.605469 242.472656 208.542969 C 242.441406 208.515625 242.410156 208.453125 242.378906 208.421875 C 242.347656 208.390625 242.316406 208.328125 242.253906 208.296875 C 242.070312 208.113281 241.917969 207.929688 241.761719 207.742188 L 241.699219 207.683594 L 241.636719 207.683594 L 241.359375 207.128906 C 241.050781 206.542969 240.898438 205.925781 240.898438 205.28125 C 240.898438 204.632812 241.019531 203.988281 241.300781 203.339844 C 241.484375 202.878906 241.730469 202.417969 242.039062 201.953125 C 242.347656 201.492188 242.71875 201.03125 243.152344 200.570312 C 243.890625 199.769531 244.847656 198.96875 245.898438 198.199219 C 246.855469 197.488281 247.9375 196.84375 249.046875 196.226562 C 248.984375 196.105469 248.890625 195.917969 248.800781 195.703125 C 247.964844 194.132812 246.144531 192.039062 244.355469 189.945312 C 244.324219 189.945312 244.324219 189.914062 244.292969 189.914062 C 242.253906 187.574219 240.21875 185.234375 239.167969 183.203125 C 238.027344 181.015625 237.472656 178.335938 237.164062 175.011719 C 236.855469 171.777344 236.792969 167.835938 236.730469 162.972656 C 236.730469 161.339844 236.699219 159.613281 236.667969 157.734375 C 236.636719 155.886719 236.574219 153.917969 236.515625 151.761719 C 236.515625 151.421875 236.484375 151.054688 236.453125 150.621094 C 236.421875 150.253906 236.390625 149.851562 236.359375 149.484375 C 235.773438 144.433594 233.828125 140.214844 230.894531 136.703125 C 227.59375 132.730469 223.054688 129.589844 217.902344 127.28125 C 214.597656 125.773438 211.046875 124.601562 207.40625 123.710938 C 203.761719 122.785156 199.964844 122.140625 196.261719 121.769531 C 195.769531 123.402344 194.78125 124.816406 193.515625 125.867188 C 192.035156 127.097656 190.121094 127.835938 187.988281 127.835938 C 185.953125 127.835938 184.070312 127.128906 182.558594 125.925781 C 181.261719 124.847656 180.273438 123.433594 179.746094 121.800781 L 144.804688 121.800781 C 144.34375 122.785156 143.664062 123.617188 142.828125 124.234375 C 141.78125 125.003906 140.515625 125.433594 139.15625 125.433594 C 137.429688 125.433594 135.882812 124.757812 134.742188 123.617188 C 133.632812 122.507812 132.953125 120.96875 132.953125 119.246094 C 132.953125 117.550781 133.632812 116.011719 134.742188 114.871094 C 135.882812 113.761719 137.429688 113.054688 139.15625 113.054688 C 140.515625 113.054688 141.78125 113.515625 142.828125 114.285156 C 143.664062 114.902344 144.34375 115.734375 144.804688 116.71875 L 178.792969 116.71875 L 179.777344 116.597656 C 180.304688 114.996094 181.320312 113.578125 182.617188 112.53125 C 184.101562 111.363281 185.953125 110.652344 187.988281 110.652344 C 190.027344 110.652344 191.910156 111.363281 193.421875 112.5625 C 194.71875 113.609375 195.738281 115.027344 196.230469 116.6875 C 200.335938 117.058594 204.503906 117.734375 208.546875 118.753906 C 212.5 119.738281 216.386719 121 219.96875 122.632812 C 225.925781 125.3125 231.144531 128.945312 234.972656 133.625 C 238.429688 137.8125 240.742188 142.894531 241.453125 148.960938 C 241.484375 149.390625 241.515625 149.824219 241.546875 150.285156 C 241.578125 150.683594 241.609375 151.144531 241.636719 151.640625 C 241.699219 153.734375 241.730469 155.734375 241.761719 157.644531 C 241.792969 159.492188 241.824219 161.246094 241.855469 162.941406 C 241.976562 172.054688 242.039062 177.597656 243.738281 180.921875 C 244.507812 182.433594 246.300781 184.496094 248.121094 186.589844 L 248.121094 186.621094 C 249.140625 187.757812 250.15625 188.929688 251.054688 190.039062 C 251.949219 191.175781 252.75 192.316406 253.304688 193.363281 C 254.046875 194.78125 254.417969 196.136719 254.234375 197.335938 C 254.046875 198.660156 253.246094 199.769531 251.703125 200.570312 C 250.683594 201.09375 249.757812 201.679688 248.921875 202.261719 C 248.121094 202.847656 247.410156 203.464844 246.855469 204.050781 C 246.640625 204.296875 246.421875 204.511719 246.300781 204.726562 C 246.207031 204.820312 246.175781 204.910156 246.113281 204.972656 C 246.238281 205.097656 246.332031 205.25 246.453125 205.375 C 246.671875 205.679688 246.855469 205.957031 247.007812 206.265625 C 247.289062 206.882812 247.472656 207.46875 247.566406 208.082031 C 247.625 208.730469 247.597656 209.34375 247.472656 209.992188 C 247.347656 210.546875 247.132812 211.101562 246.855469 211.65625 C 246.578125 212.179688 246.207031 212.671875 245.804688 213.132812 C 245.496094 213.441406 245.15625 213.75 244.785156 214.027344 C 244.664062 214.117188 244.539062 214.179688 244.417969 214.273438 C 244.539062 214.394531 244.664062 214.488281 244.726562 214.550781 C 245.09375 214.796875 245.375 215.132812 245.621094 215.566406 C 245.835938 215.933594 245.992188 216.398438 246.082031 216.859375 C 246.144531 217.257812 246.175781 217.691406 246.113281 218.152344 C 246.082031 218.550781 246.023438 218.953125 245.867188 219.414062 C 245.714844 219.875 245.464844 220.371094 245.125 220.832031 C 244.816406 221.230469 244.449219 221.632812 243.984375 221.96875 C 243.460938 222.371094 242.8125 222.710938 242.039062 222.957031 C 241.824219 223.015625 241.609375 223.078125 241.359375 223.140625 C 241.515625 223.511719 241.699219 224.003906 241.886719 224.617188 C 242.195312 225.574219 242.441406 226.710938 242.566406 227.945312 C 242.65625 229.023438 242.6875 230.160156 242.566406 231.300781 C 242.503906 232.285156 242.316406 233.242188 242.007812 234.164062 C 241.730469 235.027344 241.359375 235.859375 240.867188 236.628906 C 240.3125 237.492188 239.601562 238.289062 238.738281 238.96875 C 237.933594 239.585938 236.976562 240.078125 235.867188 240.414062 C 235.125 240.660156 234.324219 240.816406 233.425781 240.878906 C 232.59375 240.96875 231.699219 240.9375 230.679688 240.847656 C 229.785156 240.785156 229.105469 240.691406 228.457031 240.632812 L 228.335938 240.601562 C 224.320312 240.167969 219.445312 239.644531 215 240.632812 C 210.863281 241.554688 206.972656 243.832031 204.351562 248.820312 C 205.308594 249.53125 206.140625 250.421875 206.726562 251.46875 C 207.46875 252.734375 207.898438 254.210938 207.898438 255.78125 C 207.898438 258.152344 206.941406 260.277344 205.367188 261.878906 C 203.824219 263.449219 201.664062 264.402344 199.257812 264.402344 C 196.847656 264.402344 194.6875 263.449219 193.144531 261.878906 C 191.601562 260.339844 190.613281 258.183594 190.613281 255.78125 C 190.613281 253.410156 191.570312 251.222656 193.144531 249.683594 C 194.71875 248.113281 196.847656 247.160156 199.257812 247.160156 L 199.316406 247.160156 Z M 156.566406 218.183594 C 158.046875 218.183594 159.40625 218.769531 160.394531 219.753906 C 161.351562 220.738281 161.96875 222.09375 161.96875 223.570312 C 161.96875 225.050781 161.351562 226.40625 160.394531 227.390625 C 159.40625 228.375 158.046875 228.960938 156.566406 228.960938 C 155.054688 228.960938 153.726562 228.375 152.738281 227.390625 C 151.75 226.40625 151.132812 225.050781 151.132812 223.570312 C 151.132812 222.09375 151.75 220.738281 152.738281 219.753906 C 153.726562 218.769531 155.054688 218.183594 156.566406 218.183594 Z M 173.574219 215.289062 C 175.550781 215.289062 177.371094 215.964844 178.820312 217.136719 C 180.058594 218.121094 181.011719 219.476562 181.507812 221.046875 L 214.226562 221.046875 C 214.753906 219.382812 215.738281 217.96875 217.035156 216.921875 C 218.519531 215.71875 220.402344 214.980469 222.5 214.980469 C 224.878906 214.980469 227.007812 215.933594 228.613281 217.503906 C 230.15625 219.074219 231.144531 221.199219 231.144531 223.601562 C 231.144531 225.972656 230.15625 228.160156 228.613281 229.699219 C 227.039062 231.269531 224.90625 232.226562 222.5 232.226562 C 220.433594 232.226562 218.550781 231.515625 217.035156 230.285156 C 215.738281 229.238281 214.753906 227.820312 214.226562 226.1875 L 181.507812 226.1875 C 181.011719 227.730469 180.058594 229.082031 178.820312 230.101562 C 177.402344 231.238281 175.582031 231.917969 173.574219 231.917969 C 171.257812 231.917969 169.191406 230.992188 167.648438 229.515625 C 166.167969 228.007812 165.210938 225.941406 165.210938 223.601562 C 165.210938 221.324219 166.167969 219.230469 167.648438 217.722656 C 169.160156 216.210938 171.289062 215.289062 173.574219 215.289062 Z M 203.269531 159.277344 C 204.96875 159.277344 206.480469 159.953125 207.589844 161.0625 C 208.671875 162.171875 209.351562 163.679688 209.351562 165.34375 C 209.351562 167.003906 208.671875 168.515625 207.589844 169.621094 C 206.480469 170.730469 204.96875 171.410156 203.269531 171.410156 C 201.601562 171.410156 200.089844 170.730469 198.980469 169.621094 C 197.898438 168.542969 197.21875 167.003906 197.21875 165.34375 C 197.21875 163.679688 197.898438 162.140625 198.980469 161.0625 C 200.089844 159.953125 201.601562 159.277344 203.269531 159.277344 Z M 155.332031 140.953125 C 156.71875 140.953125 157.984375 141.507812 158.910156 142.433594 C 159.839844 143.355469 160.394531 144.617188 160.394531 146.003906 C 160.394531 147.421875 159.839844 148.683594 158.910156 149.574219 L 158.910156 149.605469 C 157.984375 150.5 156.71875 151.085938 155.332031 151.085938 C 153.910156 151.085938 152.644531 150.5 151.75 149.605469 L 151.71875 149.574219 C 150.824219 148.683594 150.238281 147.421875 150.238281 146.003906 C 150.238281 144.617188 150.824219 143.355469 151.71875 142.433594 L 151.75 142.433594 C 152.613281 141.507812 153.910156 140.953125 155.332031 140.953125 Z M 154.496094 179.320312 C 156.164062 179.320312 157.675781 180 158.789062 181.078125 C 159.898438 182.1875 160.578125 183.695312 160.578125 185.386719 C 160.578125 187.050781 159.898438 188.558594 158.789062 189.667969 C 157.675781 190.746094 156.164062 191.421875 154.496094 191.421875 C 152.832031 191.421875 151.289062 190.746094 150.207031 189.667969 C 149.097656 188.558594 148.417969 187.050781 148.417969 185.386719 C 148.417969 183.695312 149.097656 182.1875 150.207031 181.078125 C 151.257812 180 152.769531 179.320312 154.496094 179.320312 Z M 172.554688 125.835938 C 174.375 125.835938 176.011719 126.574219 177.246094 127.742188 C 178.453125 128.945312 179.191406 130.605469 179.191406 132.453125 C 179.191406 134.300781 178.453125 135.902344 177.246094 137.136719 C 176.042969 138.335938 174.40625 139.074219 172.554688 139.074219 C 171.042969 139.074219 169.683594 138.582031 168.574219 137.75 C 167.648438 137.042969 166.90625 136.121094 166.445312 135.011719 L 123.628906 135.011719 C 122.917969 135.011719 122.273438 134.734375 121.808594 134.273438 C 121.34375 133.808594 121.066406 133.164062 121.066406 132.425781 C 121.066406 131.683594 121.34375 131.070312 121.808594 130.605469 C 122.273438 130.144531 122.917969 129.867188 123.628906 129.867188 L 166.414062 129.867188 C 166.875 128.789062 167.617188 127.835938 168.542969 127.160156 C 169.652344 126.328125 171.042969 125.835938 172.554688 125.835938 Z M 183.636719 156.75 C 186.015625 156.75 188.207031 157.707031 189.75 159.277344 C 191.324219 160.816406 192.28125 162.972656 192.28125 165.371094 C 192.28125 167.773438 191.324219 169.929688 189.75 171.46875 C 188.207031 173.039062 186.046875 173.996094 183.636719 173.996094 C 181.570312 173.996094 179.6875 173.253906 178.171875 172.054688 C 176.878906 171.007812 175.890625 169.589844 175.394531 167.960938 L 125.328125 167.960938 C 124.617188 167.960938 124 167.652344 123.539062 167.191406 L 123.507812 167.191406 C 123.074219 166.726562 122.765625 166.113281 122.765625 165.402344 C 122.765625 164.695312 123.074219 164.078125 123.507812 163.617188 C 123.96875 163.15625 124.617188 162.847656 125.328125 162.847656 L 175.394531 162.847656 C 175.890625 161.214844 176.878906 159.800781 178.171875 158.753906 C 179.65625 157.488281 181.570312 156.75 183.636719 156.75 Z M 169.066406 139.351562 C 170.550781 139.351562 171.96875 139.84375 173.082031 140.707031 C 174.007812 141.414062 174.746094 142.371094 175.210938 143.480469 L 209.691406 143.480469 C 210.214844 141.847656 211.203125 140.398438 212.5 139.351562 C 213.980469 138.152344 215.863281 137.414062 217.960938 137.414062 C 220.339844 137.414062 222.46875 138.398438 224.074219 139.9375 C 225.617188 141.507812 226.574219 143.632812 226.574219 146.035156 C 226.574219 148.4375 225.617188 150.59375 224.074219 152.132812 C 222.5 153.703125 220.371094 154.65625 217.960938 154.65625 C 215.894531 154.65625 214.011719 153.949219 212.5 152.746094 C 211.203125 151.667969 210.214844 150.253906 209.691406 148.621094 L 175.242188 148.621094 C 174.777344 149.730469 174.039062 150.683594 173.113281 151.394531 C 172 152.222656 170.582031 152.71875 169.097656 152.71875 C 167.246094 152.71875 165.578125 151.976562 164.34375 150.777344 C 163.140625 149.574219 162.371094 147.914062 162.371094 146.035156 C 162.371094 144.21875 163.140625 142.554688 164.34375 141.292969 C 165.546875 140.089844 167.214844 139.351562 169.066406 139.351562 Z M 175.273438 176.765625 C 177.308594 176.765625 179.222656 177.472656 180.734375 178.675781 C 182.03125 179.722656 183.019531 181.167969 183.515625 182.800781 L 215.957031 182.800781 C 216.449219 181.167969 217.4375 179.722656 218.734375 178.675781 C 220.214844 177.472656 222.097656 176.765625 224.199219 176.765625 C 226.574219 176.765625 228.765625 177.722656 230.308594 179.261719 C 231.851562 180.832031 232.839844 182.988281 232.839844 185.386719 C 232.839844 187.730469 231.882812 189.882812 230.308594 191.484375 C 228.765625 193.023438 226.605469 193.980469 224.199219 193.980469 C 222.128906 193.980469 220.246094 193.269531 218.734375 192.070312 C 217.4375 191.023438 216.449219 189.578125 215.957031 187.945312 L 183.515625 187.945312 C 183.019531 189.578125 182.03125 191.023438 180.734375 192.070312 C 179.253906 193.269531 177.339844 193.980469 175.273438 193.980469 C 172.894531 193.980469 170.703125 193.023438 169.160156 191.484375 C 167.585938 189.914062 166.628906 187.757812 166.628906 185.386719 C 166.628906 183.015625 167.585938 180.832031 169.160156 179.261719 C 170.703125 177.722656 172.894531 176.765625 175.273438 176.765625 Z M 175.273438 176.765625 " fill-opacity="1" fill-rule="nonzero"/></g></svg>