<svg xmlns="http://www.w3.org/2000/svg" xmlns:xlink="http://www.w3.org/1999/xlink" width="500" zoomAndPan="magnify" viewBox="0 0 375 374.999991" height="500" preserveAspectRatio="xMidYMid meet" version="1.0"><defs><g/><clipPath id="1ba0faac76"><path d="M 8.34375 83.246094 L 120 83.246094 L 120 212.246094 L 8.34375 212.246094 Z M 8.34375 83.246094 " clip-rule="nonzero"/></clipPath></defs><g fill="#000000" fill-opacity="1"><g transform="translate(146.174147, 163.937364)"><g><path d="M 21 -24.5 L 14.171875 -24.5 L 14.171875 -27.125 C 14.171875 -27.394531 14.078125 -27.628906 13.890625 -27.828125 C 13.703125 -28.035156 13.472656 -28.140625 13.203125 -28.140625 L 10.375 -28.140625 C 10.101562 -28.140625 9.875 -28.035156 9.6875 -27.828125 C 9.5 -27.628906 9.40625 -27.394531 9.40625 -27.125 L 9.40625 -21.21875 C 9.40625 -20.9375 9.5 -20.691406 9.6875 -20.484375 C 9.875 -20.285156 10.101562 -20.1875 10.375 -20.1875 L 15 -20.1875 C 19.238281 -20.113281 21.359375 -17.851562 21.359375 -13.40625 L 21.359375 -6.265625 C 21.359375 -1.742188 19.238281 0.515625 15 0.515625 L 8.9375 0.515625 C 4.6875 0.515625 2.5625 -1.742188 2.5625 -6.265625 L 2.5625 -9.703125 L 9.40625 -9.703125 L 9.40625 -6.015625 C 9.40625 -5.734375 9.5 -5.488281 9.6875 -5.28125 C 9.875 -5.082031 10.101562 -4.984375 10.375 -4.984375 L 13.5625 -4.984375 C 13.832031 -4.984375 14.0625 -5.082031 14.25 -5.28125 C 14.4375 -5.488281 14.53125 -5.734375 14.53125 -6.015625 L 14.53125 -12.53125 C 14.53125 -12.800781 14.4375 -13.039062 14.25 -13.25 C 14.0625 -13.457031 13.832031 -13.5625 13.5625 -13.5625 L 8.9375 -13.5625 C 4.6875 -13.5625 2.5625 -15.820312 2.5625 -20.34375 L 2.5625 -26.96875 C 2.5625 -31.488281 4.6875 -33.75 8.9375 -33.75 L 14.640625 -33.75 C 18.878906 -33.75 21 -31.488281 21 -26.96875 Z M 21 -24.5 "/></g></g></g><g fill="#000000" fill-opacity="1"><g transform="translate(179.915085, 163.937364)"><g><path d="M 15.765625 -33.75 C 20.015625 -33.75 22.140625 -31.488281 22.140625 -26.96875 L 22.140625 0 L 14.953125 0 L 14.953125 -11.140625 L 9.765625 -11.140625 L 9.765625 0 L 2.5625 0 L 2.5625 -26.96875 C 2.5625 -31.488281 4.6875 -33.75 8.9375 -33.75 Z M 9.765625 -16.6875 L 14.953125 -16.6875 L 14.953125 -27.84375 C 14.953125 -28.113281 14.851562 -28.347656 14.65625 -28.546875 C 14.46875 -28.753906 14.238281 -28.859375 13.96875 -28.859375 L 10.734375 -28.859375 C 10.460938 -28.859375 10.234375 -28.753906 10.046875 -28.546875 C 9.859375 -28.347656 9.765625 -28.113281 9.765625 -27.84375 Z M 9.765625 -16.6875 "/></g></g></g><g fill="#000000" fill-opacity="1"><g transform="translate(215.042534, 163.937364)"><g><path d="M 9.765625 -6.0625 L 17.609375 -6.0625 L 17.609375 0 L 2.5625 0 L 2.5625 -33.234375 L 9.765625 -33.234375 Z M 9.765625 -6.0625 "/></g></g></g><g fill="#000000" fill-opacity="1"><g transform="translate(243.699596, 163.937364)"><g><path d="M 0.671875 -27.125 L 0.671875 -33.234375 L 18.640625 -33.234375 L 18.640625 -27.125 L 13.25 -27.125 L 13.25 0 L 6.0625 0 L 6.0625 -27.125 Z M 0.671875 -27.125 "/></g></g></g><g fill="#000000" fill-opacity="1"><g transform="translate(273.281002, 163.937364)"><g><path d="M 20.390625 -17.765625 L 20.390625 -12.28125 L 2.875 -12.28125 L 2.875 -17.765625 Z M 20.390625 -17.765625 "/></g></g></g><g fill="#000000" fill-opacity="1"><g transform="translate(306.662489, 163.937364)"><g><path d="M 15.765625 -33.75 C 20.015625 -33.75 22.140625 -31.488281 22.140625 -26.96875 L 22.140625 0 L 14.953125 0 L 14.953125 -11.140625 L 9.765625 -11.140625 L 9.765625 0 L 2.5625 0 L 2.5625 -26.96875 C 2.5625 -31.488281 4.6875 -33.75 8.9375 -33.75 Z M 9.765625 -16.6875 L 14.953125 -16.6875 L 14.953125 -27.84375 C 14.953125 -28.113281 14.851562 -28.347656 14.65625 -28.546875 C 14.46875 -28.753906 14.238281 -28.859375 13.96875 -28.859375 L 10.734375 -28.859375 C 10.460938 -28.859375 10.234375 -28.753906 10.046875 -28.546875 C 9.859375 -28.347656 9.765625 -28.113281 9.765625 -27.84375 Z M 9.765625 -16.6875 "/></g></g></g><g fill="#000000" fill-opacity="1"><g transform="translate(341.789943, 163.937364)"><g><path d="M 9.765625 -33.234375 L 9.765625 0 L 2.5625 0 L 2.5625 -33.234375 Z M 9.765625 -33.234375 "/></g></g></g><g clip-path="url(#1ba0faac76)"><path fill="#01a2e9" d="M 22.90625 157.578125 C 24.171875 157.578125 25.335938 157.992188 26.265625 158.714844 C 27.066406 159.308594 27.683594 160.109375 28.074219 161.039062 L 74.65625 161.039062 C 75.097656 159.667969 75.925781 158.457031 77.007812 157.578125 C 78.25 156.570312 79.824219 155.949219 81.582031 155.949219 C 83.570312 155.949219 85.355469 156.777344 86.699219 158.066406 C 87.988281 159.386719 88.816406 161.167969 88.816406 163.183594 C 88.816406 165.171875 87.988281 167.007812 86.699219 168.300781 C 85.378906 169.617188 83.597656 170.417969 81.582031 170.417969 C 79.851562 170.417969 78.273438 169.824219 77.007812 168.816406 C 75.925781 167.910156 75.097656 166.722656 74.65625 165.355469 L 28.097656 165.355469 C 27.710938 166.285156 27.089844 167.085938 26.289062 167.679688 C 25.359375 168.375 24.199219 168.789062 22.929688 168.789062 C 21.382812 168.789062 19.984375 168.167969 18.953125 167.164062 C 17.945312 166.15625 17.324219 164.757812 17.324219 163.183594 C 17.324219 161.660156 17.945312 160.265625 18.953125 159.203125 C 19.960938 158.195312 21.355469 157.578125 22.90625 157.578125 Z M 73.910156 197.828125 C 76.648438 191.964844 80.832031 189.328125 85.355469 188.21875 C 89.902344 187.132812 94.683594 187.648438 98.636719 188.089844 L 99.695312 188.191406 L 100.574219 188.296875 C 101.117188 188.320312 101.605469 188.347656 102.046875 188.296875 C 102.484375 188.269531 102.898438 188.191406 103.234375 188.089844 C 103.671875 187.960938 104.007812 187.78125 104.320312 187.546875 C 104.628906 187.3125 104.886719 187.003906 105.09375 186.667969 C 105.300781 186.332031 105.480469 185.972656 105.609375 185.558594 C 105.742188 185.09375 105.84375 184.601562 105.894531 184.109375 C 105.945312 183.4375 105.945312 182.765625 105.871094 182.121094 C 105.792969 181.398438 105.664062 180.726562 105.480469 180.15625 C 103.855469 174.9375 106.128906 173.828125 106.800781 173.621094 C 106.929688 173.570312 107.058594 173.542969 107.058594 173.542969 C 107.1875 173.542969 107.265625 173.519531 107.394531 173.519531 C 107.753906 173.519531 108.066406 173.492188 108.296875 173.441406 C 108.503906 173.390625 108.632812 173.335938 108.738281 173.257812 C 108.53125 173.078125 108.351562 172.871094 108.144531 172.640625 C 107.886719 172.304688 107.625 171.941406 107.417969 171.554688 C 107.289062 171.296875 107.1875 171.039062 107.136719 170.78125 C 107.058594 170.519531 107.007812 170.261719 107.007812 169.976562 C 106.980469 169.617188 107.03125 169.28125 107.136719 168.945312 C 107.238281 168.609375 107.367188 168.300781 107.601562 167.988281 C 107.78125 167.757812 107.988281 167.523438 108.246094 167.316406 C 108.480469 167.109375 108.761719 166.929688 109.074219 166.773438 C 109.203125 166.722656 109.304688 166.644531 109.410156 166.566406 C 109.511719 166.492188 109.617188 166.414062 109.695312 166.308594 C 109.796875 166.207031 109.875 166.101562 109.925781 166 C 109.976562 165.894531 110.03125 165.792969 110.054688 165.714844 C 110.054688 165.636719 110.054688 165.558594 110.054688 165.507812 C 110.054688 165.457031 110.03125 165.429688 110.03125 165.378906 C 110.003906 165.355469 109.976562 165.300781 109.953125 165.277344 C 109.925781 165.25 109.898438 165.199219 109.847656 165.171875 C 109.695312 165.019531 109.5625 164.863281 109.433594 164.707031 L 109.382812 164.65625 L 109.332031 164.65625 L 109.097656 164.191406 C 108.839844 163.699219 108.710938 163.183594 108.710938 162.640625 C 108.710938 162.097656 108.816406 161.554688 109.046875 161.011719 C 109.203125 160.625 109.410156 160.238281 109.667969 159.851562 C 109.925781 159.464844 110.234375 159.074219 110.597656 158.6875 C 111.21875 158.015625 112.019531 157.34375 112.898438 156.699219 C 113.699219 156.105469 114.601562 155.5625 115.53125 155.046875 C 115.480469 154.941406 115.402344 154.785156 115.324219 154.605469 C 114.628906 153.289062 113.105469 151.53125 111.605469 149.773438 C 111.578125 149.773438 111.578125 149.75 111.554688 149.75 C 109.847656 147.785156 108.144531 145.820312 107.265625 144.117188 C 106.308594 142.28125 105.84375 140.035156 105.585938 137.242188 C 105.328125 134.53125 105.273438 131.222656 105.222656 127.140625 C 105.222656 125.773438 105.199219 124.324219 105.171875 122.75 C 105.144531 121.199219 105.09375 119.546875 105.042969 117.738281 C 105.042969 117.453125 105.015625 117.144531 104.992188 116.78125 C 104.964844 116.472656 104.9375 116.136719 104.914062 115.824219 C 104.421875 111.589844 102.792969 108.050781 100.339844 105.105469 C 97.574219 101.769531 93.777344 99.136719 89.460938 97.199219 C 86.699219 95.933594 83.726562 94.949219 80.679688 94.199219 C 77.628906 93.425781 74.449219 92.882812 71.351562 92.574219 C 70.9375 93.941406 70.109375 95.132812 69.050781 96.007812 C 67.8125 97.042969 66.207031 97.664062 64.425781 97.664062 C 62.722656 97.664062 61.144531 97.070312 59.878906 96.0625 C 58.792969 95.15625 57.96875 93.96875 57.527344 92.597656 L 28.28125 92.597656 C 27.890625 93.425781 27.324219 94.125 26.625 94.640625 C 25.746094 95.285156 24.6875 95.648438 23.550781 95.648438 C 22.105469 95.648438 20.8125 95.078125 19.855469 94.125 C 18.925781 93.191406 18.359375 91.902344 18.359375 90.453125 C 18.359375 89.035156 18.925781 87.742188 19.855469 86.785156 C 20.8125 85.855469 22.105469 85.261719 23.550781 85.261719 C 24.6875 85.261719 25.746094 85.648438 26.625 86.296875 C 27.324219 86.8125 27.890625 87.507812 28.28125 88.335938 L 56.726562 88.335938 L 57.554688 88.234375 C 57.992188 86.890625 58.84375 85.699219 59.929688 84.824219 C 61.171875 83.839844 62.722656 83.246094 64.425781 83.246094 C 66.132812 83.246094 67.707031 83.839844 68.972656 84.847656 C 70.058594 85.726562 70.910156 86.914062 71.324219 88.308594 C 74.761719 88.621094 78.25 89.1875 81.632812 90.042969 C 84.941406 90.867188 88.195312 91.925781 91.195312 93.296875 C 96.179688 95.542969 100.546875 98.59375 103.75 102.519531 C 106.644531 106.035156 108.582031 110.296875 109.175781 115.386719 C 109.203125 115.75 109.226562 116.109375 109.253906 116.496094 C 109.28125 116.832031 109.304688 117.222656 109.332031 117.632812 C 109.382812 119.390625 109.410156 121.070312 109.433594 122.671875 C 109.460938 124.222656 109.488281 125.695312 109.511719 127.117188 C 109.617188 134.765625 109.667969 139.414062 111.089844 142.203125 C 111.734375 143.46875 113.234375 145.203125 114.757812 146.957031 L 114.757812 146.984375 C 115.609375 147.941406 116.460938 148.921875 117.210938 149.851562 C 117.960938 150.808594 118.632812 151.765625 119.097656 152.640625 C 119.71875 153.832031 120.027344 154.96875 119.875 155.976562 C 119.71875 157.085938 119.046875 158.015625 117.753906 158.6875 C 116.902344 159.128906 116.125 159.617188 115.429688 160.109375 C 114.757812 160.601562 114.164062 161.117188 113.699219 161.609375 C 113.515625 161.8125 113.335938 161.996094 113.234375 162.175781 C 113.15625 162.253906 113.128906 162.332031 113.078125 162.382812 C 113.179688 162.484375 113.257812 162.613281 113.363281 162.71875 C 113.542969 162.976562 113.699219 163.210938 113.828125 163.46875 C 114.058594 163.984375 114.214844 164.476562 114.292969 164.992188 C 114.34375 165.535156 114.316406 166.050781 114.214844 166.59375 C 114.113281 167.058594 113.929688 167.523438 113.699219 167.988281 C 113.464844 168.429688 113.15625 168.839844 112.820312 169.230469 C 112.5625 169.488281 112.277344 169.746094 111.96875 169.976562 C 111.863281 170.054688 111.761719 170.109375 111.65625 170.183594 C 111.761719 170.289062 111.863281 170.367188 111.914062 170.417969 C 112.226562 170.625 112.457031 170.910156 112.664062 171.269531 C 112.84375 171.582031 112.976562 171.96875 113.050781 172.355469 C 113.105469 172.691406 113.128906 173.054688 113.078125 173.441406 C 113.050781 173.777344 113 174.113281 112.871094 174.5 C 112.742188 174.886719 112.535156 175.300781 112.25 175.6875 C 111.992188 176.023438 111.683594 176.359375 111.296875 176.644531 C 110.855469 176.980469 110.3125 177.265625 109.667969 177.472656 C 109.488281 177.523438 109.304688 177.574219 109.097656 177.625 C 109.226562 177.9375 109.382812 178.347656 109.539062 178.867188 C 109.796875 179.667969 110.003906 180.621094 110.105469 181.65625 C 110.183594 182.5625 110.210938 183.515625 110.105469 184.472656 C 110.054688 185.300781 109.898438 186.101562 109.640625 186.875 C 109.410156 187.597656 109.097656 188.296875 108.6875 188.941406 C 108.21875 189.664062 107.625 190.335938 106.902344 190.90625 C 106.230469 191.421875 105.429688 191.835938 104.5 192.121094 C 103.878906 192.328125 103.207031 192.457031 102.457031 192.507812 C 101.761719 192.585938 101.011719 192.558594 100.160156 192.480469 C 99.410156 192.429688 98.839844 192.351562 98.300781 192.300781 L 98.195312 192.273438 C 94.835938 191.914062 90.753906 191.472656 87.035156 192.300781 C 83.570312 193.074219 80.316406 194.988281 78.121094 199.171875 C 78.921875 199.765625 79.617188 200.515625 80.109375 201.394531 C 80.730469 202.453125 81.089844 203.695312 81.089844 205.011719 C 81.089844 207 80.289062 208.785156 78.972656 210.128906 C 77.679688 211.445312 75.871094 212.246094 73.855469 212.246094 C 71.839844 212.246094 70.03125 211.445312 68.742188 210.128906 C 67.449219 208.835938 66.621094 207.027344 66.621094 205.011719 C 66.621094 203.023438 67.421875 201.1875 68.742188 199.898438 C 70.058594 198.578125 71.839844 197.777344 73.855469 197.777344 L 73.910156 197.777344 Z M 38.125 173.464844 C 39.363281 173.464844 40.5 173.957031 41.328125 174.785156 C 42.128906 175.609375 42.644531 176.746094 42.644531 177.988281 C 42.644531 179.226562 42.128906 180.363281 41.328125 181.191406 C 40.5 182.019531 39.363281 182.507812 38.125 182.507812 C 36.859375 182.507812 35.746094 182.019531 34.917969 181.191406 C 34.09375 180.363281 33.578125 179.226562 33.578125 177.988281 C 33.578125 176.746094 34.09375 175.609375 34.917969 174.785156 C 35.746094 173.957031 36.859375 173.464844 38.125 173.464844 Z M 52.359375 171.039062 C 54.015625 171.039062 55.539062 171.605469 56.753906 172.585938 C 57.785156 173.414062 58.585938 174.550781 59 175.867188 L 86.386719 175.867188 C 86.828125 174.472656 87.652344 173.285156 88.738281 172.40625 C 89.980469 171.398438 91.554688 170.78125 93.3125 170.78125 C 95.300781 170.78125 97.085938 171.582031 98.429688 172.898438 C 99.71875 174.214844 100.546875 176 100.546875 178.011719 C 100.546875 180.003906 99.71875 181.835938 98.429688 183.128906 C 97.109375 184.445312 95.328125 185.246094 93.3125 185.246094 C 91.582031 185.246094 90.003906 184.652344 88.738281 183.621094 C 87.652344 182.742188 86.828125 181.554688 86.386719 180.183594 L 59 180.183594 C 58.585938 181.476562 57.785156 182.613281 56.753906 183.464844 C 55.5625 184.421875 54.039062 184.988281 52.359375 184.988281 C 50.421875 184.988281 48.691406 184.214844 47.398438 182.972656 C 46.160156 181.707031 45.359375 179.976562 45.359375 178.011719 C 45.359375 176.101562 46.160156 174.34375 47.398438 173.078125 C 48.664062 171.8125 50.449219 171.039062 52.359375 171.039062 Z M 77.214844 124.042969 C 78.636719 124.042969 79.902344 124.609375 80.832031 125.539062 C 81.738281 126.46875 82.304688 127.734375 82.304688 129.132812 C 82.304688 130.527344 81.738281 131.792969 80.832031 132.722656 C 79.902344 133.652344 78.636719 134.222656 77.214844 134.222656 C 75.820312 134.222656 74.554688 133.652344 73.625 132.722656 C 72.71875 131.816406 72.152344 130.527344 72.152344 129.132812 C 72.152344 127.734375 72.71875 126.445312 73.625 125.539062 C 74.554688 124.609375 75.820312 124.042969 77.214844 124.042969 Z M 37.089844 108.667969 C 38.253906 108.667969 39.3125 109.132812 40.085938 109.910156 C 40.863281 110.683594 41.328125 111.742188 41.328125 112.90625 C 41.328125 114.09375 40.863281 115.152344 40.085938 115.902344 L 40.085938 115.929688 C 39.3125 116.679688 38.253906 117.167969 37.089844 117.167969 C 35.902344 117.167969 34.84375 116.679688 34.09375 115.929688 L 34.066406 115.902344 C 33.316406 115.152344 32.828125 114.09375 32.828125 112.90625 C 32.828125 111.742188 33.316406 110.683594 34.066406 109.910156 L 34.09375 109.910156 C 34.816406 109.132812 35.902344 108.667969 37.089844 108.667969 Z M 36.390625 140.859375 C 37.789062 140.859375 39.054688 141.429688 39.984375 142.332031 C 40.914062 143.265625 41.484375 144.53125 41.484375 145.949219 C 41.484375 147.347656 40.914062 148.613281 39.984375 149.542969 C 39.054688 150.445312 37.789062 151.015625 36.390625 151.015625 C 34.996094 151.015625 33.707031 150.445312 32.800781 149.542969 C 31.871094 148.613281 31.300781 147.347656 31.300781 145.949219 C 31.300781 144.53125 31.871094 143.265625 32.800781 142.332031 C 33.679688 141.429688 34.945312 140.859375 36.390625 140.859375 Z M 51.507812 95.984375 C 53.03125 95.984375 54.402344 96.605469 55.433594 97.585938 C 56.441406 98.59375 57.0625 99.988281 57.0625 101.539062 C 57.0625 103.089844 56.441406 104.433594 55.433594 105.464844 C 54.425781 106.472656 53.058594 107.09375 51.507812 107.09375 C 50.242188 107.09375 49.105469 106.679688 48.175781 105.980469 C 47.398438 105.386719 46.777344 104.613281 46.390625 103.683594 L 10.554688 103.683594 C 9.960938 103.683594 9.417969 103.449219 9.03125 103.0625 C 8.644531 102.675781 8.410156 102.132812 8.410156 101.511719 C 8.410156 100.890625 8.644531 100.375 9.03125 99.988281 C 9.417969 99.601562 9.960938 99.367188 10.554688 99.367188 L 46.367188 99.367188 C 46.753906 98.464844 47.375 97.664062 48.148438 97.09375 C 49.078125 96.398438 50.242188 95.984375 51.507812 95.984375 Z M 60.78125 121.921875 C 62.773438 121.921875 64.605469 122.722656 65.898438 124.042969 C 67.214844 125.332031 68.019531 127.140625 68.019531 129.15625 C 68.019531 131.171875 67.214844 132.980469 65.898438 134.273438 C 64.605469 135.589844 62.796875 136.390625 60.78125 136.390625 C 59.050781 136.390625 57.476562 135.769531 56.210938 134.765625 C 55.125 133.886719 54.296875 132.695312 53.882812 131.328125 L 11.976562 131.328125 C 11.382812 131.328125 10.863281 131.070312 10.476562 130.679688 L 10.453125 130.679688 C 10.089844 130.292969 9.832031 129.777344 9.832031 129.183594 C 9.832031 128.589844 10.089844 128.070312 10.453125 127.683594 C 10.839844 127.296875 11.382812 127.039062 11.976562 127.039062 L 53.882812 127.039062 C 54.296875 125.667969 55.125 124.480469 56.210938 123.601562 C 57.449219 122.542969 59.050781 121.921875 60.78125 121.921875 Z M 48.585938 107.324219 C 49.828125 107.324219 51.015625 107.738281 51.945312 108.460938 C 52.722656 109.058594 53.34375 109.859375 53.730469 110.789062 L 82.589844 110.789062 C 83.027344 109.417969 83.855469 108.203125 84.941406 107.324219 C 86.179688 106.316406 87.757812 105.699219 89.515625 105.699219 C 91.503906 105.699219 93.285156 106.523438 94.628906 107.816406 C 95.921875 109.132812 96.722656 110.917969 96.722656 112.933594 C 96.722656 114.949219 95.921875 116.757812 94.628906 118.046875 C 93.3125 119.367188 91.53125 120.167969 89.515625 120.167969 C 87.785156 120.167969 86.207031 119.570312 84.941406 118.5625 C 83.855469 117.660156 83.027344 116.472656 82.589844 115.101562 L 53.753906 115.101562 C 53.367188 116.03125 52.746094 116.832031 51.972656 117.425781 C 51.042969 118.125 49.855469 118.539062 48.613281 118.539062 C 47.0625 118.539062 45.667969 117.917969 44.632812 116.910156 C 43.628906 115.902344 42.980469 114.507812 42.980469 112.933594 C 42.980469 111.40625 43.628906 110.011719 44.632812 108.953125 C 45.640625 107.945312 47.039062 107.324219 48.585938 107.324219 Z M 53.78125 138.714844 C 55.488281 138.714844 57.089844 139.3125 58.355469 140.320312 C 59.441406 141.195312 60.265625 142.410156 60.679688 143.78125 L 87.835938 143.78125 C 88.25 142.410156 89.074219 141.195312 90.160156 140.320312 C 91.402344 139.3125 92.976562 138.714844 94.734375 138.714844 C 96.722656 138.714844 98.558594 139.515625 99.847656 140.808594 C 101.140625 142.128906 101.96875 143.933594 101.96875 145.949219 C 101.96875 147.914062 101.167969 149.722656 99.847656 151.066406 C 98.558594 152.359375 96.75 153.160156 94.734375 153.160156 C 93.003906 153.160156 91.425781 152.566406 90.160156 151.558594 C 89.074219 150.679688 88.25 149.464844 87.835938 148.09375 L 60.679688 148.09375 C 60.265625 149.464844 59.441406 150.679688 58.355469 151.558594 C 57.113281 152.566406 55.511719 153.160156 53.78125 153.160156 C 51.792969 153.160156 49.957031 152.359375 48.664062 151.066406 C 47.347656 149.75 46.546875 147.941406 46.546875 145.949219 C 46.546875 143.960938 47.347656 142.128906 48.664062 140.808594 C 49.957031 139.515625 51.792969 138.714844 53.78125 138.714844 Z M 53.78125 138.714844 " fill-opacity="1" fill-rule="nonzero"/></g></svg>