<?xml version="1.0" encoding="utf-8"?>
<!-- Svg Vector Icons : http://www.onlinewebfonts.com/icon -->
<!DOCTYPE svg PUBLIC "-//W3C//DTD SVG 1.1//EN" "http://www.w3.org/Graphics/SVG/1.1/DTD/svg11.dtd">
<svg version="1.1" xmlns="http://www.w3.org/2000/svg" xmlns:xlink="http://www.w3.org/1999/xlink" x="0px" y="0px" viewBox="0 0 256 256" enable-background="new 0 0 256 256" xml:space="preserve">
<metadata> Svg Vector Icons : http://www.onlinewebfonts.com/icon </metadata>
<g><g><path fill="#000000" d="M45.5,188.9h111.7v-10.1H45.5V188.9z M96.3,117.8H45.5V128h50.8V117.8z M45.5,158.4h99.6l12-10.2H45.5V158.4z M128.6,11.2h-22.2c-37.2,0-76.2,0-76.2,0C19.1,11.2,10,20.3,10,31.5v192.9c0,11.2,9.1,20.3,20.3,20.3h142.2c11.2,0,20.3-9.1,20.3-20.3V82.3L128.6,11.2z M131.8,29.8l44.5,47.4H142c-5.6,0-10.2-4.6-10.2-10.2V29.8z M182.6,224.5c0,5.6-4.6,10.2-10.2,10.2H30.3c-5.6,0-10.2-4.6-10.2-10.2V31.5c0-5.6,4.6-10.2,10.2-10.2h91.4v45.7c0,11.2,9.1,20.3,20.3,20.3h40.6L182.6,224.5L182.6,224.5z M96.3,87.4H45.5v10.2h50.8V87.4z"/><path fill="#000000" d="M154.2,165.2l-5.4-5.4l69.5-69.5l-5.4-5.4l-69.5,69.5l0,0L131,182.8l28.5-12.4l0.1,0.1l69.5-69.5l-5.4-5.4L154.2,165.2z M242.6,71.4c-4.5-4.5-11.7-4.5-16.2,0l-2.7,2.7l-5.4,5.4l5.4,5.4l5.4,5.4l5.4,5.4l5.4-5.4l2.7-2.7C247.1,83.1,247.1,75.9,242.6,71.4z M237.3,82.2l-2.7,2.7l-5.4-5.4l2.7-2.7c1.5-1.5,3.9-1.5,5.4,0C238.7,78.3,238.7,80.7,237.3,82.2z"/></g></g>
</svg>